<svg xmlns="http://www.w3.org/2000/svg" width="1600" height="620" viewBox="0 0 1600 620" role="img" aria-labelledby="title desc">
  <title id="title">Multi-domain automation agent architecture visual</title>
  <desc id="desc">An abstract dashboard-style illustration showing controlled agent orchestration, device evidence, and domain plugins.</desc>
  <defs>
    <linearGradient id="bg" x1="0" y1="0" x2="1" y2="1">
      <stop offset="0" stop-color="#10253f"/>
      <stop offset="0.48" stop-color="#113f4a"/>
      <stop offset="1" stop-color="#263648"/>
    </linearGradient>
    <linearGradient id="panel" x1="0" y1="0" x2="1" y2="1">
      <stop offset="0" stop-color="#f7fbff" stop-opacity="0.94"/>
      <stop offset="1" stop-color="#e8f1f6" stop-opacity="0.88"/>
    </linearGradient>
    <linearGradient id="accent" x1="0" y1="0" x2="1" y2="0">
      <stop offset="0" stop-color="#35c2a6"/>
      <stop offset="1" stop-color="#6fb6ff"/>
    </linearGradient>
    <filter id="shadow" x="-20%" y="-20%" width="140%" height="140%">
      <feDropShadow dx="0" dy="18" stdDeviation="18" flood-color="#071521" flood-opacity="0.28"/>
    </filter>
  </defs>
  <rect width="1600" height="620" fill="url(#bg)"/>
  <g opacity="0.18" fill="none" stroke="#ffffff" stroke-width="1">
    <path d="M0 120H1600M0 240H1600M0 360H1600M0 480H1600"/>
    <path d="M180 0V620M360 0V620M540 0V620M720 0V620M900 0V620M1080 0V620M1260 0V620M1440 0V620"/>
  </g>
  <g transform="translate(112 78)" filter="url(#shadow)">
    <rect x="0" y="0" width="540" height="400" rx="22" fill="url(#panel)"/>
    <rect x="32" y="36" width="126" height="28" rx="14" fill="#d9edf3"/>
    <rect x="32" y="90" width="470" height="46" rx="12" fill="#ffffff"/>
    <rect x="32" y="156" width="214" height="154" rx="16" fill="#ffffff"/>
    <rect x="266" y="156" width="236" height="154" rx="16" fill="#ffffff"/>
    <rect x="32" y="330" width="470" height="34" rx="12" fill="#e7f4f0"/>
    <g fill="#244055">
      <circle cx="62" cy="113" r="9"/>
      <circle cx="96" cy="113" r="9"/>
      <circle cx="130" cy="113" r="9"/>
      <rect x="59" y="188" width="158" height="14" rx="7"/>
      <rect x="59" y="220" width="112" height="14" rx="7" opacity="0.72"/>
      <rect x="294" y="188" width="168" height="14" rx="7"/>
      <rect x="294" y="220" width="126" height="14" rx="7" opacity="0.72"/>
    </g>
    <path d="M78 348H460" stroke="url(#accent)" stroke-width="10" stroke-linecap="round"/>
  </g>
  <g transform="translate(725 88)" filter="url(#shadow)">
    <rect x="0" y="0" width="328" height="410" rx="30" fill="#f8fbfd"/>
    <rect x="30" y="52" width="268" height="274" rx="18" fill="#e7eef3"/>
    <circle cx="164" cy="364" r="22" fill="#d8e3e9"/>
    <g transform="translate(72 92)">
      <rect x="0" y="0" width="184" height="28" rx="14" fill="#33b99d"/>
      <rect x="0" y="54" width="184" height="28" rx="14" fill="#6fb6ff"/>
      <rect x="0" y="108" width="184" height="28" rx="14" fill="#f2c94c"/>
      <rect x="0" y="162" width="184" height="28" rx="14" fill="#ef6f6c"/>
    </g>
  </g>
  <g transform="translate(1118 112)" filter="url(#shadow)">
    <rect x="0" y="0" width="360" height="104" rx="18" fill="#f8fbfd"/>
    <rect x="0" y="142" width="360" height="104" rx="18" fill="#f8fbfd"/>
    <rect x="0" y="284" width="360" height="104" rx="18" fill="#f8fbfd"/>
    <g fill="#244055" opacity="0.9">
      <rect x="38" y="36" width="166" height="14" rx="7"/>
      <rect x="38" y="62" width="246" height="12" rx="6" opacity="0.62"/>
      <rect x="38" y="178" width="188" height="14" rx="7"/>
      <rect x="38" y="204" width="224" height="12" rx="6" opacity="0.62"/>
      <rect x="38" y="320" width="152" height="14" rx="7"/>
      <rect x="38" y="346" width="248" height="12" rx="6" opacity="0.62"/>
    </g>
  </g>
  <g fill="none" stroke="url(#accent)" stroke-width="8" stroke-linecap="round" stroke-linejoin="round" opacity="0.88">
    <path d="M653 274C687 274 690 274 724 274"/>
    <path d="M1054 274C1090 274 1090 164 1118 164"/>
    <path d="M1054 274C1090 274 1090 306 1118 306"/>
    <path d="M1054 274C1090 274 1090 448 1118 448"/>
  </g>
  <g transform="translate(104 520)">
    <rect x="0" y="0" width="1388" height="2" fill="#ffffff" opacity="0.2"/>
    <circle cx="0" cy="1" r="8" fill="#35c2a6"/>
    <circle cx="454" cy="1" r="8" fill="#6fb6ff"/>
    <circle cx="916" cy="1" r="8" fill="#f2c94c"/>
    <circle cx="1388" cy="1" r="8" fill="#ef6f6c"/>
  </g>
</svg>
